<svg xmlns="http://www.w3.org/2000/svg" fill="none" viewBox="0 0 61 125">
  <path fill-rule="evenodd" clip-rule="evenodd" d="M20.92 26.766h-4.816l4.817-9.793v9.793zM29.026 0H20.92L0 40.681h9.337l2.054-4.33h9.53v4.33h8.104V0zm12.922 82.133h8.858V0h-8.858v82.133zm9.096 42.668h-8.106l-3.839-18.456v18.456h-7.913V84.536h7.586l4.358 18.28v-18.28h7.914V124.8z" fill="#D9272A"/>
  <path d="M53.097 2.52h7.751V.132h-7.751V2.52zm0 3.543h4.787v.026L53.097 7.68v2.62h7.751V8.066h-4.777V8.04l4.777-1.54V3.829h-7.751v2.234zm0 9.95l7.751 1.976v-2.542l-5.84-.963v-.025l5.84-.963v-2.504l-7.751 1.939v3.081zm0 8.177h1.65v-3.16h1.541v2.85h1.585v-2.85h1.325v3.043h1.65v-5.43h-7.751v5.546zm-.12 3.94c0 1.053.187 1.858.56 2.414.372.556.971.835 1.796.835.47 0 .852-.097 1.145-.29.294-.192.53-.434.712-.725.18-.29.327-.603.44-.937.111-.334.222-.646.33-.937a2.77 2.77 0 01.386-.726.72.72 0 01.602-.288.71.71 0 01.472.18c.142.12.212.307.212.564 0 .231-.081.402-.244.514-.163.111-.36.167-.592.167h-.184v2.234c.832 0 1.438-.234 1.818-.7.38-.466.57-1.222.57-2.266 0-1.01-.206-1.763-.619-2.26-.412-.496-1.013-.744-1.802-.744-.456 0-.825.091-1.107.276-.282.184-.51.415-.684.693a4.24 4.24 0 00-.424.905 24.92 24.92 0 01-.32.905 2.5 2.5 0 01-.38.694.733.733 0 01-.602.275.758.758 0 01-.532-.198c-.145-.133-.217-.324-.217-.572 0-.23.066-.42.2-.565.134-.145.368-.218.7-.218h.185v-2.311h-.271c-.406 0-.746.068-1.02.205a1.676 1.676 0 00-.668.597c-.17.262-.29.582-.359.963-.068.381-.103.82-.103 1.316zm.12 7.96h6.036v1.797h1.715V31.93h-1.715v1.772h-6.036v2.388zm0 4.749h5.775v.026l-5.775 1.27v1.721l5.775 1.271v.026h-5.775v2.234h7.751v-3.415l-4.592-.963v-.026l4.592-.963v-3.415h-7.751v2.234zm0 13.403h1.65v-3.158h1.541v2.85h1.585v-2.85h1.325v3.042h1.65v-5.43h-7.751v5.546zm0 3.376h4.787v.025l-4.787 1.592v2.62h7.751V59.62h-4.777v-.026l4.777-1.54v-2.671h-7.751v2.234zm0 9.23h6.036v1.797h1.715v-5.957h-1.715v1.772h-6.036v2.388zm-.12 9.011c0 1.053.187 1.857.56 2.414.372.556.971.834 1.796.834.47 0 .852-.096 1.145-.289.294-.192.53-.434.712-.725a4.54 4.54 0 00.44-.937c.111-.334.222-.647.33-.938a2.77 2.77 0 01.386-.725.72.72 0 01.602-.289.71.71 0 01.472.18c.142.12.212.308.212.565 0 .231-.081.402-.244.514-.163.11-.36.166-.592.166h-.184v2.234c.832 0 1.438-.233 1.818-.7.38-.466.57-1.221.57-2.266 0-1.01-.206-1.763-.619-2.26-.412-.496-1.013-.744-1.802-.744-.456 0-.825.092-1.107.276a2.23 2.23 0 00-.684.694 4.24 4.24 0 00-.424.905 24.92 24.92 0 01-.32.905 2.51 2.51 0 01-.38.693.733.733 0 01-.602.276.758.758 0 01-.532-.199c-.145-.132-.217-.323-.217-.571a.8.8 0 01.2-.565c.134-.146.368-.218.7-.218h.185v-2.311h-.271c-.406 0-.746.068-1.02.205a1.676 1.676 0 00-.668.597 2.59 2.59 0 00-.359.963c-.068.38-.103.82-.103 1.316zm.12 9.91h1.65v-3.158h1.541v2.85h1.585v-2.85h1.325v3.043h1.65v-5.43h-7.751v5.546zm0 3.53h3.105v.63c0 .145-.017.267-.05.366a.5.5 0 01-.173.243.776.776 0 01-.342.135 3.185 3.185 0 01-.543.039h-.52a6.75 6.75 0 00-.706.032 3.46 3.46 0 00-.413.064c-.138.03-.257.075-.358.135v2.542h.108a.499.499 0 01.114-.167 3.59 3.59 0 01.125-.102.63.63 0 01.185-.065c.08-.017.168-.03.266-.038.097-.009.2-.013.309-.013h.977c.521 0 .93-.107 1.227-.321.297-.214.467-.608.51-1.181h.022c.072.547.268.945.586 1.194.318.248.738.372 1.26.372.296 0 .571-.045.824-.135.254-.09.473-.235.657-.436.185-.201.328-.462.429-.783.101-.321.152-.709.152-1.162v-3.736h-7.751v2.387zm4.472.476v-.476h1.824v.463c0 .36-.069.618-.206.776-.137.159-.37.238-.695.238-.275 0-.497-.081-.667-.244-.17-.162-.256-.415-.256-.757zm-4.472 9.089l7.751 1.977v-2.542l-5.84-.963v-.026l5.84-.963v-2.503l-7.751 1.938v3.082zm0 4.929h7.751v-2.388h-7.751v2.388zm-.12 4.313c0 .385.035.759.103 1.123.07.364.203.687.402.97.2.282.472.509.82.68.347.171.792.257 1.335.257h.575v-2.311c-.369 0-.675-.011-.917-.032a2.479 2.479 0 01-.58-.109.593.593 0 01-.31-.219.644.644 0 01-.092-.359c0-.18.04-.323.119-.43.08-.107.22-.189.423-.244a3.93 3.93 0 01.82-.109 25.77 25.77 0 011.297-.026c.521 0 .954.008 1.298.026.343.017.617.053.82.109.202.055.343.137.423.244a.7.7 0 01.12.43c0 .231-.08.398-.24.5-.159.103-.46.155-.9.155h-.435v2.311h.489c.376 0 .714-.054 1.015-.161.3-.107.557-.278.77-.513.214-.236.379-.542.494-.918.116-.377.174-.835.174-1.374 0-.617-.07-1.134-.212-1.554a2.151 2.151 0 00-.69-1.014c-.317-.257-.734-.439-1.248-.546-.513-.107-1.14-.16-1.878-.16-.723 0-1.34.045-1.85.135-.51.089-.927.254-1.25.494-.321.24-.551.573-.688 1.001-.138.428-.207.976-.207 1.644zm.12 9.705h1.65v-3.158h1.541v2.85h1.585v-2.85h1.325v3.043h1.65v-5.431h-7.751v5.546zm-.12 3.941c0 1.053.187 1.857.56 2.413.372.557.971.835 1.796.835.47 0 .852-.096 1.145-.289a2.33 2.33 0 00.712-.725c.18-.291.327-.604.44-.938.111-.333.222-.646.33-.937.109-.291.237-.533.386-.725a.72.72 0 01.602-.289.71.71 0 01.472.18c.142.12.212.308.212.565 0 .231-.081.402-.244.513-.163.111-.36.167-.592.167h-.184v2.234c.832 0 1.438-.233 1.818-.7.38-.466.57-1.222.57-2.266 0-1.01-.206-1.763-.619-2.259-.412-.497-1.013-.745-1.802-.745-.456 0-.825.092-1.107.276-.282.184-.51.415-.684.693a4.24 4.24 0 00-.424.905 23.97 23.97 0 01-.32.906 2.508 2.508 0 01-.38.693.733.733 0 01-.602.276.757.757 0 01-.532-.199c-.145-.133-.217-.323-.217-.571a.8.8 0 01.2-.565c.134-.146.368-.219.7-.219h.185v-2.311h-.271c-.406 0-.746.069-1.02.206a1.677 1.677 0 00-.668.597 2.59 2.59 0 00-.359.963 7.465 7.465 0 00-.103 1.316z" fill="#fff"/>
  <path fill-rule="evenodd" clip-rule="evenodd" d="M31.135 82.133h8.858V0h-8.858v82.133zm-10.214 42.668h8.091v-66.15h-8.09v66.15zm.001-69.136h8.09V42.768h-8.09v12.897z" fill="#D9272A"/>
</svg>
