<svg xmlns="http://www.w3.org/2000/svg" fill="none" viewBox="0 0 94 95">
  <path d="M50.497 78.552h24.591c.97 0 1.757-.786 1.757-1.756V58.663c0-.97-.787-1.757-1.757-1.757h-24.59c-.97 0-1.754.787-1.754 1.757v18.134c0 .969.784 1.755 1.753 1.755zm1.757-18.134h21.08v8.673h-21.08v-8.673zm0 12.187h21.08v2.436h-21.08v-2.436z" fill="#D9272A"/>
  <path d="M91.742 83.486H85.9V53.22h5.166c.97 0 1.757-.783 1.757-1.754v-6.743c0-.038-.008-.07-.011-.108a1.487 1.487 0 00-.094-.467 1.688 1.688 0 00-.101-.233c-.017-.032-.024-.069-.043-.098l-7.8-15.2.617-.016c.97 0 1.755-.786 1.755-1.755V20.14c0-.97-.785-1.755-1.755-1.755L56.34 18.4a20.14 20.14 0 005.64-5.839 15.6 15.6 0 001.794.123c4 0 6.027-1.776 6.945-2.992 1.472-1.948 1.736-4.587.675-6.718C70.467 1.116 68.69.006 66.639.006L63.587 0h-.001c-.036 0-.07.008-.107.01-.036-.001-.07-.01-.106-.01L26.572.001c-.968 0-1.755.788-1.755 1.755 0 6.908 3.496 13.013 8.81 16.647H8.561c-.967 0-1.754.786-1.754 1.755v6.706c0 .785.52 1.444 1.232 1.665L1.643 44.032l-.008.017c-.002.007-.002.012-.005.017a1.804 1.804 0 00-.1.365c-.007.043-.009.088-.013.132-.005.052-.017.105-.017.16v6.743c0 .97.786 1.755 1.757 1.755h7.348v30.266H4.76c-.97 0-1.755.786-1.755 1.756v6.369c0 .969.787 1.755 1.756 1.755l86.982.001c.97 0 1.757-.787 1.757-1.755v-6.37c0-.97-.787-1.756-1.757-1.756zM64.797 5.41c.115-.627.198-1.26.253-1.896l1.588.004c.914 0 1.381.555 1.614 1.023.387.778.435 2.019-.333 3.036-.79 1.046-2.273 1.585-4.2 1.583.469-1.196.84-2.446 1.078-3.75zm24.513 44.3H75.26v-3.23h14.05v3.23zM40.678 61.84h-17.74c-.97 0-1.757.788-1.757 1.757v19.89h-7.066V53.22h68.273v30.266H42.435V63.599c0-.97-.787-1.757-1.757-1.757v-.001zm-1.753 3.512v18.135H24.692V65.351h14.233zm-2.302-18.871v3.23h-14.05v-3.23h14.05zm-13.439-3.513l4.343-14.35h10.63l-1.374 14.35H23.184zm31 3.513v3.23h-14.05v-3.23h14.05zm-13.871-3.513l1.371-14.35h9.942l2.197 14.35h-13.51zm17.064 0l-2.198-14.35h11.459l4.477 14.35H57.377zM71.75 46.48v3.23H57.7v-3.23h14.05zm16.443-3.513h-13.4l-4.478-14.35h10.511l7.366 14.35zM28.42 3.51h33.104a15.25 15.25 0 01-.184 1.268c-1.442 7.894-8.325 13.623-16.368 13.623-8.586 0-15.674-6.533-16.553-14.89zM10.317 21.913l73.317-.016v3.196l-1.733.016H10.319v-3.196h-.002zm1.483 6.706h12.058l-4.344 14.35H5.88l5.92-14.35zM5.01 49.712V46.48h14.051v3.23H5.012zm84.975 40.145H6.515V87h83.47v2.857z" fill="#D9272A"/>
</svg>
