<svg xmlns="http://www.w3.org/2000/svg" fill="none" viewBox="0 0 94 63">
  <path fill-rule="evenodd" clip-rule="evenodd" d="M79.058 20.422H15.5a7.762 7.762 0 00-.406.013c-.282.013-.687.04-1.18.094-.985.107-2.307.322-3.664.748-2.738.86-5.464 2.527-6.07 5.76-.65 3.472-1.192 10.004-.488 15.649.353 2.826 1.013 5.382 2.093 7.216 1.068 1.816 2.515 2.881 4.48 2.881 2.018 0 6.87.047 13.225.107 7.45.072 16.964.163 26.394.222 8.74.055 17.408.082 24.302.041 6.915-.04 11.997-.151 13.601-.366 1.385-.184 2.457-1.274 3.258-3.125.798-1.842 1.271-4.318 1.516-7.014.489-5.384.054-11.49-.381-14.759-.197-1.479-1.06-2.69-2.31-3.688-1.254-1-2.867-1.76-4.483-2.326a30.635 30.635 0 00-4.393-1.153 31.347 31.347 0 00-1.927-.3h-.008zm.027-.5l.052-.498-.026-.002H15.488a13.916 13.916 0 00-.443.014c-.298.014-.725.042-1.24.099a20.473 20.473 0 00-3.856.788c-2.85.895-6.042 2.74-6.752 6.53-.665 3.552-1.218 10.189-.498 15.957.36 2.88 1.042 5.593 2.223 7.599 1.191 2.025 2.923 3.374 5.342 3.374 2.016 0 6.86.047 13.207.107 7.448.072 16.964.163 26.406.222 8.74.055 17.414.082 24.314.041 6.88-.04 12.044-.15 13.727-.374 1.903-.254 3.188-1.743 4.044-3.72.86-1.985 1.345-4.584 1.594-7.32.497-5.48.055-11.666-.386-14.982-.242-1.813-1.297-3.236-2.677-4.337-1.376-1.098-3.106-1.903-4.777-2.489a31.618 31.618 0 00-4.538-1.192 32.388 32.388 0 00-1.89-.297l-.11-.013-.03-.003-.008-.001h-.002l-.053.497z" fill="#0B2B49"/>
  <path d="M93.673 30.43c-.677-5.02-3.794-8.218-7.216-10.135a7.855 7.855 0 003.788-1.468 2.91 2.91 0 001.026-2.063l.008-.173-.032-.17c-.093-.487-.995-4.794-4.02-5.816-1.719-.581-3.593.02-5.565 1.791-.383.36-.736.752-1.054 1.17a8.7 8.7 0 01-2.008 1.947l-.492-1.076C74.857 7.335 67.538.169 58.514.169h-22.43c-9.023 0-16.342 7.166-19.594 14.268l-.39.854v-.001a9.026 9.026 0 01-1.695-1.724 9.494 9.494 0 00-1.053-1.17c-1.972-1.77-3.845-2.372-5.565-1.79-3.025 1.022-3.927 5.328-4.02 5.816l-.032.17.008.172c.043.8.414 1.546 1.026 2.063a7.452 7.452 0 003.481 1.41C4.788 22.152 1.61 25.372.921 30.46a57.076 57.076 0 00.199 13.388v14.267a4.39 4.39 0 001.283 3.098 4.375 4.375 0 003.093 1.285h7.585c1.16 0 2.272-.463 3.093-1.285a4.39 4.39 0 001.283-3.098v-2.982H76.98v2.982a4.39 4.39 0 001.283 3.098 4.375 4.375 0 003.093 1.285h7.585c1.16 0 2.272-.463 3.093-1.285a4.39 4.39 0 001.283-3.098V45.092h-.056c1.294-6.614.467-14.178.416-14.632l-.003-.03zM82.88 15.398a7.24 7.24 0 01.728-.826c.637-.57 1.832-1.486 2.682-1.2 1.017.342 1.745 2.19 2.02 3.284-.648.706-4.116 1.153-7.728 1.034a11.735 11.735 0 002.298-2.293zm-63.736.256C22.007 9.4 28.355 3.09 36.085 3.09h22.431c7.73 0 14.078 6.31 16.94 12.564l1.021 2.233-58.171-.006a2.532 2.532 0 00-.052-.28l.89-1.948zM6.698 16.68c.264-1.067 1.003-2.961 2.024-3.307.855-.286 2.047.628 2.684 1.199.263.256.506.532.727.825.657.867 1.431 1.64 2.3 2.293-3.647.124-7.154-.332-7.735-1.01zm7.843 41.435a1.462 1.462 0 01-1.458 1.461H5.498a1.463 1.463 0 01-1.459-1.46v-6.138c.164.22.333.431.511.632h.001a7.202 7.202 0 005.579 2.523h4.411v2.982zm75.859 0a1.463 1.463 0 01-1.458 1.461h-7.585a1.463 1.463 0 01-1.459-1.46v-2.983h4.58a7.2 7.2 0 005.574-2.521c.12-.137.235-.283.349-.428l-.001 5.931zm-2.526-7.448a4.334 4.334 0 01-3.396 1.544H10.13a4.342 4.342 0 01-3.402-1.545C2.974 46.453 3.357 34.89 3.819 30.82c1.172-8.654 11.177-9.918 12.13-10.018h62.7c.846.094 10.963 1.414 12.132 10.003.466 4.112.848 15.648-2.906 19.861z" fill="#0B2B49"/>
  <path fill-rule="evenodd" clip-rule="evenodd" d="M93.672 30.43c-.676-5.02-3.794-8.218-7.215-10.135a7.855 7.855 0 003.788-1.468 2.91 2.91 0 001.025-2.063l.008-.173-.032-.17c-.093-.487-.995-4.794-4.02-5.816-1.719-.581-3.593.02-5.564 1.791-.384.36-.736.752-1.055 1.17a8.701 8.701 0 01-2.007 1.947l-.493-1.076C74.857 7.335 67.537.169 58.514.169H36.083C27.06.169 19.74 7.335 16.49 14.437l-.391.854v-.001a9.026 9.026 0 01-1.694-1.724 9.494 9.494 0 00-1.054-1.17c-1.971-1.77-3.845-2.372-5.564-1.79-3.025 1.022-3.927 5.328-4.02 5.816l-.032.17.007.172c.043.8.415 1.546 1.026 2.063a7.452 7.452 0 003.482 1.41C4.788 22.152 1.61 25.372.92 30.46a57.076 57.076 0 00.2 13.388v14.267a4.39 4.39 0 001.283 3.098 4.375 4.375 0 003.093 1.285h7.584c1.16 0 2.272-.463 3.093-1.285a4.39 4.39 0 001.284-3.098v-2.982h59.522v2.982a4.391 4.391 0 001.283 3.098 4.375 4.375 0 003.093 1.285h7.584a4.37 4.37 0 003.093-1.285 4.39 4.39 0 001.284-3.098V45.092h-.056c1.293-6.614.467-14.178.415-14.632l-.003-.03zM82.881 15.398a7.24 7.24 0 01.728-.826c.636-.57 1.832-1.486 2.681-1.2 1.017.342 1.746 2.19 2.02 3.284-.647.706-4.116 1.153-7.727 1.034a11.738 11.738 0 002.298-2.293zm-63.737.256C22.006 9.4 28.354 3.09 36.084 3.09h22.432c7.729 0 14.078 6.31 16.939 12.564l1.022 2.233-58.172-.006a2.532 2.532 0 00-.051-.28l.89-1.948zM6.698 16.68c.264-1.067 1.003-2.961 2.023-3.307.855-.286 2.047.628 2.684 1.199.263.256.506.532.728.825.656.867 1.43 1.64 2.3 2.293-3.647.124-7.154-.332-7.735-1.01zm7.842 41.435h.001a1.463 1.463 0 01-1.459 1.461H5.498a1.463 1.463 0 01-1.46-1.46v-6.138c.164.22.334.431.512.632a7.202 7.202 0 005.58 2.523h4.411v2.982zm75.86 0a1.463 1.463 0 01-1.459 1.461h-7.584a1.463 1.463 0 01-1.46-1.46v-2.983h4.58a7.2 7.2 0 005.574-2.521c.117-.132.228-.273.338-.414l.011-.014v5.931zm-2.526-7.448a4.334 4.334 0 01-3.397 1.544H10.13a4.342 4.342 0 01-3.402-1.545C2.973 46.453 3.357 34.89 3.818 30.82c1.173-8.654 11.177-9.918 12.131-10.018h62.7c.846.094 10.963 1.414 12.132 10.003.465 4.112.848 15.648-2.906 19.861h-.001zM41.832 9.3c.264 0 .523-.072.75-.209l3.646-2.19a1.462 1.462 0 00.5-2.005 1.458 1.458 0 00-2.002-.5l-3.647 2.19a1.463 1.463 0 00.752 2.714zm9.036 2.07l-4.377 2.922a1.458 1.458 0 00-.413 2.031 1.457 1.457 0 002.032.4l4.376-2.922c.664-.45.841-1.352.396-2.02a1.457 1.457 0 00-2.014-.41zm-8.68 3.215a1.458 1.458 0 01-2.133-.892c-.17-.64.112-1.316.686-1.644l10.212-5.844a1.456 1.456 0 011.992.543A1.462 1.462 0 0152.4 8.74l-10.212 5.844zm37.396 9.871a1.46 1.46 0 011.102-.891 1.461 1.461 0 011.338.465c.552.618 3.282 3.841 2.82 6.648a3.586 3.586 0 01-1.86 2.592c-3.487 1.977-10.403 3.421-12.674 3.421a1.46 1.46 0 01-.748-2.715c2.266-1.355 8.483-5.707 10.022-9.52zm1.964 6.271a.682.682 0 00.418-.524v.001a4.48 4.48 0 00-.856-2.502 25.82 25.82 0 01-4.695 4.938 23.773 23.773 0 005.133-1.913zm-58.822 3.248c-2.264-1.352-8.478-5.698-10.022-9.52a1.458 1.458 0 00-2.44-.426c-.552.618-3.282 3.841-2.82 6.648a3.587 3.587 0 001.86 2.592c3.487 1.976 10.403 3.42 12.675 3.42v.001a1.46 1.46 0 00.747-2.716zM10.74 30.726a.68.68 0 01-.418-.522c.03-.9.328-1.772.859-2.5a25.836 25.836 0 004.693 4.935 23.823 23.823 0 01-5.134-1.913zm24.309 4.504h24.916a4.32 4.32 0 013.053 1.268 4.33 4.33 0 011.266 3.056v4.5a4.332 4.332 0 01-1.266 3.055 4.322 4.322 0 01-3.053 1.269H35.05a4.322 4.322 0 01-3.053-1.269 4.332 4.332 0 01-1.266-3.056v-4.5a4.332 4.332 0 011.266-3.055 4.319 4.319 0 013.053-1.268zm24.916 10.226c.774 0 1.4-.629 1.401-1.403v-.788H33.647v.788a1.404 1.404 0 001.4 1.403h24.917zm-26.317-5.113h27.718l.001-.79c0-.774-.628-1.401-1.4-1.401H35.048c-.773 0-1.4.628-1.4 1.402v.789zm48.126.73h-4.377a2.927 2.927 0 00-2.918 2.922v2.922a2.926 2.926 0 002.918 2.922h4.377a2.926 2.926 0 002.918-2.922v-2.922a2.926 2.926 0 00-2.918-2.921zm-4.377 5.844v-2.922h4.377l.001 2.922h-4.378zM10.83 41.074h4.376a2.91 2.91 0 012.062.856c.547.548.855 1.29.856 2.065v2.922a2.926 2.926 0 01-2.918 2.922H10.83a2.926 2.926 0 01-2.918-2.922v-2.922a2.927 2.927 0 012.918-2.921zm0 2.921v2.922h4.378l-.002-2.922H10.83z" fill="#0B2B49"/>
</svg>
