<svg xmlns="http://www.w3.org/2000/svg" fill="none" viewBox="0 0 479 508">
  <path d="M461.362 458.088v-17.039c-.008-5.93-4.809-10.734-10.738-10.742h-5.09v-150.75a21.523 21.523 0 00-6.133-15.172c-5.003-5.102-14.194-15.477-19.534-27.609a21.178 21.178 0 00-12.853-11.754c-31.637-10.055-66.023-9.992-102.2.187l-.003.004a20.518 20.518 0 00-13.246 11.562c-5.34 12.133-14.531 22.512-19.535 27.609a21.536 21.536 0 00-6.133 15.172v150.75h-5.09.004c-5.93.008-10.734 4.813-10.742 10.738v16.992a18.135 18.135 0 00-13.816 4.629 18.136 18.136 0 00-5.957 13.297v25.648a6.16 6.16 0 006.16 6.16h186.7a6.16 6.16 0 100-12.32h-180.54v-19.488h-.004a5.613 5.613 0 015.61-5.605h212.26a5.614 5.614 0 015.601 5.605v19.488h-13.816c-8.133.246-8.148 12.07 0 12.32h19.98a6.16 6.16 0 006.16-6.16v-25.648a17.938 17.938 0 00-4.953-12.344 17.92 17.92 0 00-12.09-5.535l-.002.005zm-183.15-178.53a9.401 9.401 0 012.613-6.547c5.59-5.703 15.887-17.352 22.012-31.273a8.251 8.251 0 015.309-4.664c33.824-9.52 65.832-9.617 95.137-.309h-.004a8.855 8.855 0 015.313 4.973c6.125 13.926 16.422 25.57 22.012 31.273a9.397 9.397 0 012.609 6.547v150.75h-155l-.001-150.75zm-15.828 163.07h186.66v15.414h-186.66v-15.414z" fill="#D9272A"/>
  <path d="M395.841 286.538h-23.219v-22.867a8.648 8.648 0 00-8.64-8.637h-16.531a8.642 8.642 0 00-8.637 8.637v22.867h-23.227a8.645 8.645 0 00-8.637 8.637v16.539c.004 4.769 3.871 8.632 8.637 8.64h23.223v76.109a8.647 8.647 0 008.637 8.637h16.531c4.769-.004 8.632-3.871 8.64-8.637v-76.109h23.223-.004a8.654 8.654 0 008.641-8.64v-16.543c-.008-4.766-3.871-8.625-8.637-8.633zm-3.68 21.496h-20.875c-6.062.008-10.98 4.922-10.984 10.984v73.762h-9.168v-73.762c-.007-6.063-4.921-10.977-10.987-10.984h-20.871v-9.176h19.858-.003c6.625-.008 11.996-5.379 12.004-12.004V267.35h9.168v19.504c.007 6.625 5.375 11.996 12 12.004h19.859l-.001 9.176z" fill="#D9272A"/>
  <path fill-rule="evenodd" clip-rule="evenodd" d="M242.252 368.908v-13.84c-.965-23.25-34.094-23.242-35.055 0v13.84a5.497 5.497 0 01-5.5 5.496 5.496 5.496 0 01-5.496-5.496v-28.059a20.024 20.024 0 0010.27-7.211 20.022 20.022 0 003.953-11.914v-31.652a20.001 20.001 0 00-3.953-11.91 20.031 20.031 0 00-10.27-7.215v-107.19a129.713 129.713 0 0141.988 14.898 6.209 6.209 0 005.199.317c29.09-11.996 56.496-12.066 83.746-.086a6.201 6.201 0 008.636-5.641c1.293-78.359-62.684-141.55-139.78-147.37l-.003-8.594a17.133 17.133 0 00-4.969-12.21 17.15 17.15 0 00-24.344 0 17.153 17.153 0 00-4.973 12.21v8.77a165.389 165.389 0 00-60.043 17.836 6.161 6.161 0 005.734 10.906 149.663 149.663 0 0137.148-13.527c-27.484 28.828-37.742 78.047-34.383 121.24-24.234-10.285-49.055-10.031-74.059.758C38.673 126.014 55.7 93.069 84.7 69.686l-.004.004a6.16 6.16 0 00-7.73-9.594c-34.52 27.84-53.527 68.023-53.527 113.15h-.004a6.16 6.16 0 002.996 5.285 6.167 6.167 0 006.078.145c28.45-15.273 55.504-15.227 82.691.011h-.004a6.262 6.262 0 002.864.719 6.522 6.522 0 002.976-.762 129.518 129.518 0 0140.109-14.617v107.3a25.191 25.191 0 00-13.109 9.825l-2.07 3.043h.004a12.875 12.875 0 01-10.66 5.644h-9.02V278.64a6.162 6.162 0 00-6.16-6.16H6.16a6.16 6.16 0 100 12.32h107.81v44.582l-107.81.004a6.16 6.16 0 100 12.321c.238-.012 154.77-.012 154.98 0v27.207c2.235 53.801 78.891 53.777 81.105 0l.007-.006zm80.91-204.82c-24.504-8.563-49.426-8.375-74.285-.258 3.972-43.078-6.7-94.008-34.32-122.68 61.004 13.352 104.66 61.363 108.61 122.93l-.005.008zm-149.14-146.8a4.823 4.823 0 019.644 0v7.883a172.801 172.801 0 00-9.648.047l.004-7.93zM139.71 68.733c21.707-40.832 57.18-42.277 79.789 0 13.281 24.328 20.832 62.383 16.91 95.156-37.762-18.184-75.91-18.25-113.62-.02-3.907-32.777 3.636-70.797 16.918-95.137h.003zm44.168 93.789v107.58h-10.414v-107.49c3.472-.199 6.945-.231 10.414-.09zm-48.566 139.64a25.185 25.185 0 0020.852-11.047l2.066-3.043a12.886 12.886 0 0110.66-5.645h21.566a7.664 7.664 0 017.656 7.657v31.652a7.663 7.663 0 01-7.656 7.652h-64.164v-27.227l9.02.001zm94.625 66.758c-1.555 37.461-54.922 37.438-56.465 0l-.004-27.207h10.414v27.207h.004a17.81 17.81 0 008.91 15.43 17.809 17.809 0 0017.816 0 17.813 17.813 0 008.91-15.43v-13.84c.211-6.871 10.191-6.883 10.414 0l.001 13.84zm-126.126-69.022c-.246-7.926-11.75-7.926-11.992 0 .242 7.93 11.746 7.926 11.992 0zm-19.67-.19c-.246-7.926-11.75-7.926-11.992 0 .243 7.93 11.746 7.926 11.992 0z" fill="#D9272A"/>
</svg>
