<svg xmlns="http://www.w3.org/2000/svg" fill="none" viewBox="0 0 143 143">
  <path d="M120.811 20.675l.001-.008.767.768a71.495 71.495 0 0115.446 23.18l-.462.192.462-.192a72.228 72.228 0 015.475 27.406m-21.689-51.346l19.472 53.65c1.248-.018 2.233-1.056 2.217-2.304m-21.689-51.346C107.589 7.745 89.916.502 71.505.5 52.736.498 34.73 8.023 21.425 21.427 8.121 34.829.598 53.02.5 72.02m120.311-51.345L.501 72.02m141.999 0v.004l-.5.001.5-.007v.003zm-142 0a2.264 2.264 0 002.217 2.307c1.249.02 2.265-.987 2.286-2.236.115-4.12 2.37-7.872 5.926-9.867a11.368 11.368 0 0111.395.15c3.505 2.087 5.664 5.898 5.672 10.022L.5 72.02zm69.671 30.146s0 0 0 0l.36-.346-.36.346zm0 0a2.239 2.239 0 001.617.693 2.24 2.24 0 001.618-.693 2.285 2.285 0 00.633-1.641m-3.868 1.641l3.868-1.641m0 0V61.033a11.498 11.498 0 016.251 3.856 11.77 11.77 0 012.713 7.506h0v.014a2.262 2.262 0 002.25 2.206 2.262 2.262 0 002.25-2.206l.001-.007v-.008c0-4.166 2.195-8.012 5.751-10.092a11.371 11.371 0 0111.494 0c3.558 2.08 5.753 5.926 5.753 10.092 0 1.25 1.001 2.275 2.25 2.275 1.25 0 2.252-1.025 2.252-2.273l-40.965 28.129zM44.005 56.199v-.002a15.895 15.895 0 00-11.534 4.98 105.128 105.128 0 012.37-14.158h0l.003-.013a2.275 2.275 0 00-1.667-2.682h0a2.25 2.25 0 00-2.707 1.608l-.002.008-.002.007a109.894 109.894 0 00-2.518 15.14 15.897 15.897 0 00-10.675-4.876m0 0s0 0 0 0l-.025.5.025-.5zM137.997 72.09v.004l.499-.014-.499.008v.002z" fill="#173650" stroke="#0B2B49"/>
</svg>
