<svg xmlns="http://www.w3.org/2000/svg" fill="none" viewBox="0 0 20 121">
  <path fill-rule="evenodd" clip-rule="evenodd" d="M13.063 119.997H7.747L5.23 102.251v17.746H.041V81.282h4.975l2.857 17.577V81.282h5.19v38.715z" fill="#D9272A"/>
  <path d="M14.409 2.423h5.083V.127h-5.083v2.296zm0 3.407h3.14v.024l-3.14 1.531v2.518h5.083V7.755h-3.133v-.024l3.133-1.482V3.682h-5.083V5.83zm0 9.566l5.083 1.901v-2.444l-3.83-.926v-.025l3.83-.926V10.57l-5.083 1.864v2.963zm0 7.863h1.082v-3.037h1.01v2.74h1.04v-2.74h.869v2.925h1.082v-5.221h-5.083v5.333zm-.079 3.788c0 1.013.123 1.786.367 2.321.245.535.637.803 1.178.803.309 0 .56-.093.751-.278a2.09 2.09 0 00.467-.698c.118-.28.214-.58.288-.9.073-.322.146-.622.217-.902.071-.28.155-.512.253-.697.097-.186.229-.278.395-.278.114 0 .217.058.31.173.092.115.138.296.138.543 0 .222-.053.387-.16.494a.528.528 0 01-.388.16h-.12v2.148c.545 0 .942-.224 1.192-.673.249-.448.373-1.174.373-2.179 0-.97-.135-1.695-.405-2.172-.271-.477-.665-.716-1.182-.716-.3 0-.541.088-.726.265-.185.177-.335.4-.449.667a5.113 5.113 0 00-.277.87c-.072.313-.142.603-.21.87a2.9 2.9 0 01-.25.667c-.097.177-.229.265-.395.265a.424.424 0 01-.349-.19c-.095-.128-.142-.311-.142-.55 0-.222.044-.403.132-.543.088-.14.24-.21.459-.21h.12v-2.222h-.177c-.266 0-.489.066-.67.197-.18.132-.325.323-.437.574a3.28 3.28 0 00-.235.926c-.045.366-.068.788-.068 1.265zm.079 7.653h3.958v1.729h1.125V30.7h-1.125v1.703h-3.958V34.7zm0 4.567h3.787v.025l-3.787 1.222v1.654l3.787 1.222v.025h-3.787v2.148h5.083v-3.284l-3.012-.926v-.024l3.012-.926v-3.284h-5.083v2.148zm0 12.887h1.082v-3.037h1.01v2.74h1.04v-2.74h.869v2.926h1.082v-5.222h-5.083v5.333zm0 3.246h3.14v.025l-3.14 1.53v2.519h5.083v-2.148h-3.133V57.3l3.133-1.482v-2.567h-5.083V55.4zm0 8.875h3.958v1.728h1.125v-5.728h-1.125v1.704h-3.958v2.296zm-.079 8.664c0 1.012.123 1.786.367 2.32.245.536.637.803 1.178.803.309 0 .56-.092.751-.278.192-.185.348-.417.467-.697.118-.28.214-.58.288-.901.073-.321.146-.622.217-.901a3.22 3.22 0 01.253-.698c.097-.185.229-.278.395-.278.114 0 .217.058.31.173.092.115.138.296.138.543 0 .223-.053.387-.16.494a.528.528 0 01-.388.16h-.12v2.149c.545 0 .942-.225 1.192-.673.249-.449.373-1.175.373-2.179 0-.971-.135-1.695-.405-2.173-.271-.477-.665-.716-1.182-.716-.3 0-.541.089-.726.266a1.988 1.988 0 00-.449.666 5.119 5.119 0 00-.277.87c-.072.313-.142.604-.21.871-.07.267-.152.49-.25.667-.097.177-.229.265-.395.265a.425.425 0 01-.349-.191c-.095-.128-.142-.311-.142-.55 0-.222.044-.403.132-.543.088-.14.24-.21.459-.21h.12v-2.222h-.177c-.266 0-.489.066-.67.198-.18.131-.325.323-.437.574a3.28 3.28 0 00-.235.926c-.045.366-.068.788-.068 1.265zm.079 9.53h1.082v-3.037h1.01v2.74h1.04v-2.74h.869v2.925h1.082v-5.222h-5.083v5.333zm0 3.393h2.036v.605c0 .14-.01.257-.032.352a.52.52 0 01-.114.234.437.437 0 01-.224.13 1.442 1.442 0 01-.356.037h-.342a2.994 2.994 0 00-.463.03c-.09.013-.18.034-.27.063a.661.661 0 00-.235.13v2.444h.07a.527.527 0 01.076-.16c.026-.034.053-.067.082-.1a.34.34 0 01.12-.061 1.01 1.01 0 01.175-.037 1.6 1.6 0 01.203-.013h.64c.342 0 .61-.103.805-.308.195-.206.306-.585.335-1.136h.014c.047.527.175.91.384 1.148.21.239.484.358.826.358.195 0 .375-.043.541-.13.166-.086.31-.226.43-.42.122-.193.216-.444.282-.752.066-.309.1-.681.1-1.118v-3.592h-5.083v2.296zm2.933.457v-.457h1.196v.445c0 .345-.045.594-.136.746-.09.153-.242.229-.455.229a.515.515 0 01-.438-.235c-.111-.156-.167-.399-.167-.728zm-2.933 8.74l5.083 1.9v-2.444l-3.83-.926v-.025l3.83-.925V90.23l-5.083 1.864v2.963zm0 4.739h5.083V97.5h-5.083v2.297zm-.079 4.147c0 .37.023.73.068 1.08.045.349.133.66.264.932.13.271.31.489.537.654.228.165.52.247.876.247h.377v-2.222c-.242 0-.443-.01-.602-.031a1.177 1.177 0 01-.38-.105.427.427 0 01-.203-.21.85.85 0 01-.06-.345c0-.173.025-.311.077-.414a.508.508 0 01.278-.235 1.87 1.87 0 01.537-.105 12.4 12.4 0 01.851-.024c.342 0 .625.008.85.024.226.017.405.052.538.105a.508.508 0 01.278.235.922.922 0 01.078.414c0 .222-.052.382-.156.481-.105.099-.302.148-.591.148h-.285v2.222h.32c.247 0 .47-.051.666-.154.197-.103.366-.268.506-.494.14-.226.247-.52.323-.883.076-.362.114-.802.114-1.32 0-.593-.046-1.091-.139-1.494-.092-.403-.243-.729-.452-.975a1.69 1.69 0 00-.818-.525c-.337-.103-.748-.154-1.232-.154-.474 0-.879.043-1.214.129a1.642 1.642 0 00-.818.475c-.211.231-.362.552-.452.963-.09.412-.136.939-.136 1.581zm.079 9.331h1.082v-3.037h1.01v2.741h1.04v-2.741h.869v2.926h1.082v-5.222h-5.083v5.333zm-.079 3.789c0 1.012.123 1.786.367 2.321.245.535.637.802 1.178.802.309 0 .56-.092.751-.277a2.09 2.09 0 00.467-.698c.118-.28.214-.58.288-.901.073-.321.146-.621.217-.901a3.19 3.19 0 01.253-.698c.097-.185.229-.277.395-.277.114 0 .217.057.31.172.092.116.138.297.138.544 0 .222-.053.386-.16.493a.528.528 0 01-.388.161h-.12v2.148c.545 0 .942-.224 1.192-.673.249-.448.373-1.175.373-2.179 0-.971-.135-1.695-.405-2.172-.271-.478-.665-.716-1.182-.716-.3 0-.541.088-.726.265a1.98 1.98 0 00-.449.667 5.093 5.093 0 00-.277.87c-.072.313-.142.603-.21.87a2.9 2.9 0 01-.25.667c-.097.177-.229.265-.395.265a.425.425 0 01-.349-.191c-.095-.128-.142-.311-.142-.549 0-.223.044-.404.132-.544.088-.14.24-.209.459-.209h.12v-2.223h-.177c-.266 0-.489.066-.67.198-.18.132-.325.323-.437.574-.111.251-.19.56-.235.926-.045.366-.068.788-.068 1.265z" fill="#fff"/>
</svg>
