<svg xmlns="http://www.w3.org/2000/svg" fill="none" viewBox="0 0 110 109">
  <path d="M109.381 54.501L102.01 21.1H83.046V10.55h3.512V.002H61.979V10.55h3.511V21.1H7.903L.573 54.12l-.04 5.656h7.022V109h94.802V59.775h7.023l.001-5.274zM65.491 3.518h17.555v3.516H65.49V3.518zM69 10.55h10.534V21.1H69.002V10.55zM32.135 59.775v7.033h3.511v31.644H11.067v-3.516h3.51V91.42h-3.51v-3.516h3.51v-3.516h-3.51v-3.516h3.51v-3.516h-3.51V73.84h3.51v-3.516h-3.51v-3.516h3.51V63.29h-3.51v-3.516h21.067zm42.135 42.194v3.516H35.645v-3.516h38.623zm-10.534-3.517H46.179V73.84h17.556v24.612zm3.511 0V70.324H42.668v28.128h-3.512V66.808h31.601v31.644h-3.51zm-31.6-35.16v-4.184l19.174-9.52 19.449 9.527v4.176H35.645zm-24.58 38.677h21.068v3.516H11.067v-3.516zm66.714 3.516v-3.516h21.067v3.516H77.78zm21.067-42.194h-3.511v3.517h3.511v3.516h-3.511v3.516h3.511v3.516h-3.511v3.516h3.511v3.516h-3.511v3.516h3.511v3.516h-3.511v3.516h3.511v3.516H74.269V66.808h3.51v-7.033h21.068v3.517zm7.022-7.032H76.43L54.81 45.67 33.48 56.26H4.043v-1.567l6.675-30.078h88.474l6.676 30.078v1.566z" fill="#0B2B49"/>
  <path d="M56.712 84.388h3.512v3.516h-3.512v-3.516z" fill="#0B2B49"/>
</svg>
