<svg xmlns="http://www.w3.org/2000/svg" fill="none" viewBox="0 0 90 90">
  <path d="M88.48 42.403c-.84 0-1.52.68-1.52 1.52 0 .385-.024.773-.073 1.153a1.52 1.52 0 003.014.389A12.05 12.05 0 0090 43.922a1.52 1.52 0 00-1.52-1.519zm-.973 6.177a1.52 1.52 0 00-2.112.391 8.938 8.938 0 01-5.86 3.748c.012-.32.019-.64.019-.962v-5.226c0-12.756-9.747-23.338-22.181-24.648a9.482 9.482 0 00.608-3.35c0-5.257-4.276-9.533-9.533-9.533-5.256 0-9.533 4.277-9.533 9.533a9.5 9.5 0 00.558 3.212h-5.627c-3.997-4.52-10.472-7.88-15.293-9.93a1.518 1.518 0 00-2.114 1.398v15.348a24.988 24.988 0 00-6.08 9.025C4.63 37.686 0 42.378 0 48.13v2.027c0 5.753 4.63 10.445 10.36 10.546a24.884 24.884 0 0015.181 14.532v5.42c0 .84.68 1.52 1.52 1.52h11.371c.839 0 1.52-.68 1.52-1.52v-4.113h8.332v4.113c0 .84.68 1.52 1.52 1.52h11.37c.84 0 1.52-.68 1.52-1.52v-5.42a25.114 25.114 0 0011.757-8.456c2.5-3.262 4.115-6.991 4.771-10.954a11.972 11.972 0 008.678-5.132 1.52 1.52 0 00-.392-2.113zm-39.06-36.54a6.502 6.502 0 016.495 6.494 6.502 6.502 0 01-6.494 6.495 6.502 6.502 0 01-6.495-6.495 6.502 6.502 0 016.495-6.495zm12.306 60.623a1.52 1.52 0 00-1.098 1.46v5.015h-8.333v-4.112c0-.84-.68-1.52-1.52-1.52h-11.37c-.84 0-1.52.68-1.52 1.52v4.112H28.58v-5.015a1.52 1.52 0 00-1.098-1.46 21.843 21.843 0 01-14.619-13.964 1.519 1.519 0 00-1.438-1.031h-.877c-4.14 0-7.508-3.368-7.508-7.508v-2.027c0-4.14 3.368-7.509 7.508-7.509h.875a1.52 1.52 0 001.44-1.03 21.916 21.916 0 016.11-9.236c.322-.288.505-.7.505-1.13V15.552c5.634 2.63 10.025 5.67 12.496 8.68.294.357.732.562 1.197.554h.02l.276-.003h7.792a9.513 9.513 0 0014.363.017c11.586.452 20.895 10.053 20.895 21.73v5.226c0 9.633-6.482 18.228-15.763 20.905z" fill="#D9272A"/>
  <path d="M23.793 37.916a3 3 0 11-5.999 0 3 3 0 015.999 0zm34.147-7.528c0-.84-.68-1.52-1.52-1.52H40.473a1.52 1.52 0 000 3.04H56.42c.84 0 1.52-.681 1.52-1.52zm10.683 19.851c-.839 0-1.52.68-1.52 1.52 0 .553-.038 1.111-.114 1.66a1.519 1.519 0 103.01.417 15.2 15.2 0 00.143-2.078c0-.839-.68-1.52-1.519-1.52zm-1.135 7.18a1.519 1.519 0 00-2.08.54 12.378 12.378 0 01-7.261 5.66 1.52 1.52 0 00.841 2.92 15.41 15.41 0 009.04-7.04 1.52 1.52 0 00-.54-2.08z" fill="#D9272A"/>
</svg>
