<svg xmlns="http://www.w3.org/2000/svg" fill="none" viewBox="0 0 378 385">
  <path d="M319.748 55.883l.001-.013 1.541 1.574c17.477 17.851 31.361 39.09 40.857 62.49l-.927.376.927-.376c9.495 23.401 14.414 48.51 14.479 73.877M319.748 55.883l-134.229 219.09a5.568 5.568 0 004.058 1.77 5.57 5.57 0 004.058-1.77 5.87 5.87 0 001.581-4.178V163.702c6.677 1.473 12.709 5.197 17.134 10.613 4.682 5.737 7.257 12.995 7.269 20.504v.027c.09 3.099 2.56 5.617 5.638 5.617 3.079 0 5.549-2.518 5.639-5.617v-.029c0-11.385 5.884-21.886 15.408-27.564 9.523-5.673 21.252-5.673 30.772 0 9.527 5.678 15.41 16.179 15.41 27.564 0 3.165 2.495 5.791 5.639 5.791 3.146 0 5.641-2.625 5.642-5.789m15.981-138.936C284.72 20.719 237.76 1.006 188.828 1 139.173.994 91.54 21.284 56.348 57.42 21.156 93.554 1.26 142.596 1.001 193.81c-.046 3.167 2.41 5.824 5.553 5.875 3.145.051 5.678-2.529 5.73-5.695.306-11.261 6.35-21.506 15.876-26.95 9.522-5.442 21.119-5.287 30.503.409 9.388 5.698 15.177 16.103 15.197 27.372M319.748 55.883l-135.81 214.913V163.412c-7.013 1.168-13.439 4.807-18.171 10.326h-.001c-4.987 5.814-7.747 13.311-7.758 21.084v.014l-.001.014c-.089 3.102-2.559 5.619-5.638 5.619-3.079 0-5.549-2.517-5.638-5.619l-.001-.015v-.014c0-11.382-5.883-21.886-15.408-27.561h0c-9.523-5.676-21.25-5.676-30.771 0h0c-9.527 5.675-15.408 16.179-15.408 27.561 0 3.169-2.5 5.791-5.642 5.791-3.146 0-5.642-2.622-5.642-5.791m302.767-1.01v.006l-1 .002 1-.014v.006zm0 0c.042 3.164-2.412 5.823-5.554 5.871m0 0l-.016-.987.015.987h.001zm0 0c-3.144.051-5.678-2.53-5.729-5.696m0 0v.006l.999-.027-.999.015v.006zm0 0c-.304-11.264-6.351-21.506-15.876-26.95l.459-.803-.459.803c-9.523-5.445-21.119-5.29-30.504.409h0c-9.388 5.698-15.174 16.101-15.196 27.374m0 0v-.002h-1l1 .002zm-229.907.002h.995l-.996.002v-.002zm288.64-32.453c-8.203-7.514-18.957-11.448-29.974-10.891v.001l29.974 10.89zm0 0c-5.998-33.669-21.023-64.943-43.395-90.26-21.826-24.696-49.761-42.722-80.744-52.174 11.395 8.887 21.252 19.72 29.137 32.038 19.64 29.684 32.456 69.604 36.465 113.098m-218.988.412a289.555 289.555 0 016.383-39.282l.003-.013.002-.012c.627-3.037-1.193-6.076-4.173-6.828h0c-2.996-.755-5.99 1.094-6.788 4.099l-.004.014-.003.015a301.619 301.619 0 00-6.732 41.575c-7.43-8.144-17.658-13.041-28.557-13.59-11.038-.557-21.808 3.389-30.013 10.928 5.988-33.632 20.984-64.879 43.314-90.182h0c21.737-24.635 49.55-42.648 80.41-52.149a109.129 109.129 0 00-10.135 8.89l-.01.01-.009.01C109.867 48.678 95.76 72.618 87.45 98.908c-.953 2.968.564 6.212 3.477 7.271 2.927 1.064 6.11-.5 7.173-3.446l.003-.009.003-.008c15.875-46.551 43.07-78.02 73.282-86.82a138.603 138.603 0 00-12.955 38.488 639.393 639.393 0 00-11.931 110.626c-7.905-8.637-18.942-13.584-30.547-13.584v-.004c-11.834.003-23.058 5.144-30.98 14.059zm123.102-108.99a627.25 627.25 0 0111.784 109.08c-7.926-8.975-19.187-14.148-31.058-14.151v.002c-11.861.006-23.11 5.178-31.032 14.148a628.266 628.266 0 0111.689-108.67c3.58-16.309 7.416-27.293 10.934-34.177 1.76-3.445 3.42-5.82 4.896-7.322 1.496-1.52 2.685-2.025 3.513-2.025.831 0 2.016.501 3.504 2.006 1.469 1.485 3.12 3.838 4.872 7.25 3.5 6.819 7.318 17.701 10.898 33.859zm-1.887-40.63c21.795 6.272 41.535 24.16 56.776 50.225 15.318 26.198 26.033 60.568 29.683 99.4-7.914-8.912-19.132-14.055-30.958-14.061v-.003c-11.606 0-22.644 4.948-30.548 13.588a637.92 637.92 0 00-12.066-111.044 137.702 137.702 0 00-12.887-38.105z" fill="#173650" stroke="#0B2B49" stroke-width="2"/>
</svg>
