<svg xmlns="http://www.w3.org/2000/svg" fill="none" viewBox="0 0 96 96">
  <path d="M73.554 25.112H2c-1.105 0-2-.92-2-2.055V7.304C0 6.17.895 5.25 2 5.25h71.554c1.105 0 2 .92 2 2.055v15.753c0 1.135-.895 2.055-2 2.055zM4 21.002h67.556V9.36H4v11.644z" fill="#D9272A"/>
  <path d="M14.777 14.61c-1.104 0-2-.919-2-2.054V2.055c0-1.135.896-2.055 2-2.055 1.105 0 2 .92 2 2.055v10.501c0 1.135-.895 2.055-2 2.055zm10.223 0c-1.106 0-2.001-.919-2.001-2.054V2.055c0-1.135.895-2.055 2-2.055s2 .92 2 2.055v10.501c0 1.135-.895 2.055-2 2.055zm25.556 0c-1.105 0-2-.919-2-2.054V2.055c0-1.135.895-2.055 2-2.055s2 .92 2 2.055v10.501c0 1.135-.896 2.055-2 2.055zm10.222 0c-1.105 0-2-.919-2-2.054V2.055c0-1.135.895-2.055 2-2.055 1.104 0 2 .92 2 2.055v10.501c0 1.135-.896 2.055-2 2.055zM19.332 35.613h-4c-1.105 0-2-.92-2-2.054 0-1.136.895-2.055 2-2.055h4c1.105 0 2 .92 2 2.055 0 1.135-.896 2.054-2 2.054zm20.445 0h-4c-1.105 0-2-.92-2-2.054 0-1.136.895-2.055 2-2.055h4c1.105 0 2 .92 2 2.055 0 1.135-.895 2.054-2 2.054zm20.445 0h-4c-1.105 0-2-.92-2-2.054 0-1.136.895-2.055 2-2.055h4c1.105 0 2 .92 2 2.055 0 1.135-.895 2.054-2 2.054zM19.12 46.117h-3.572c-1.105 0-2-.92-2-2.055 0-1.135.895-2.055 2-2.055h3.572c1.105 0 2 .92 2 2.055 0 1.135-.896 2.055-2 2.055zm20.503 0h-3.691c-1.105 0-2-.92-2-2.055 0-1.135.895-2.055 2-2.055h3.69c1.106 0 2.001.92 2.001 2.055 0 1.135-.896 2.055-2 2.055zm20.599 0h-4c-1.105 0-2-.92-2-2.055 0-1.135.895-2.055 2-2.055h4c1.105 0 2 .92 2 2.055 0 1.135-.895 2.055-2 2.055zM19.094 56.618h-3.522c-1.104 0-2-.92-2-2.055 0-1.135.896-2.055 2-2.055h3.522c1.105 0 2 .92 2 2.055 0 1.134-.896 2.055-2 2.055zm20.432 0h-3.498c-1.105 0-2-.92-2-2.055 0-1.135.895-2.055 2-2.055h3.498c1.104 0 2 .92 2 2.055 0 1.134-.895 2.055-2 2.055zM73.554 96c-12.376 0-22.446-10.344-22.446-23.06 0-12.714 10.069-23.059 22.446-23.059 12.376 0 22.445 10.345 22.445 23.06C96 85.655 85.93 96 73.554 96zm0-42.01c-10.17 0-18.445 8.502-18.445 18.95 0 10.449 8.275 18.95 18.445 18.95s18.445-8.501 18.445-18.95c0-10.448-8.274-18.95-18.445-18.95z" fill="#D9272A"/>
  <path d="M54.611 67.12H2.002C.894 67.12 0 66.2 0 65.064V23.057c0-1.135.895-2.055 2-2.055h71.554c1.105 0 2 .92 2 2.055v28.879c0 1.135-.895 2.055-2 2.055-7.544 0-14.252 4.649-17.09 11.845a2 2 0 01-1.853 1.282v.001zm-50.61-4.11h49.307c3.43-7.402 10.342-12.323 18.247-13.038v-24.86H4V63.01z" fill="#D9272A"/>
  <path d="M73.554 58.103c-1.105 0-2-.92-2-2.055v-4.11c0-1.135.895-2.055 2-2.055s2 .92 2 2.055v4.11c0 1.134-.895 2.055-2 2.055zm0 37.897c-1.105 0-2-.92-2-2.055v-4.11c0-1.134.895-2.054 2-2.054s2 .92 2 2.055v4.11c0 1.133-.895 2.054-2 2.054zM94 74.997h-4c-1.106 0-2.001-.92-2.001-2.054 0-1.135.895-2.055 2-2.055h4c1.105 0 2 .92 2 2.055 0 1.135-.895 2.054-2 2.054zm-36.891 0h-4c-1.105 0-2-.92-2-2.054 0-1.135.895-2.055 2-2.055h4c1.105 0 2 .92 2 2.055 0 1.135-.895 2.054-2 2.054zm22.403 6.766a1.984 1.984 0 01-1.678-.933l-5.954-9.39a2.092 2.092 0 01.448-2.743l6.565-5.251a1.961 1.961 0 012.807.359 2.092 2.092 0 01-.35 2.883l-5.114 4.092 4.95 7.809c.604.95.343 2.224-.583 2.843a1.955 1.955 0 01-1.09.332z" fill="#D9272A"/>
</svg>
